<?xml version="1.0" encoding="iso-8859-1"?>
<!-- Generator: Adobe Illustrator 19.0.0, SVG Export Plug-In . SVG Version: 6.00 Build 0)  -->
<svg xmlns="http://www.w3.org/2000/svg" xmlns:xlink="http://www.w3.org/1999/xlink" version="1.1" id="Layer_1" x="0px" y="0px" viewBox="0 0 506.471 506.471" style="enable-background:new 0 0 506.471 506.471;" xml:space="preserve" width="512" height="512">
<g>
	<path d="M206.507,54.798c-84.324,0-152.927,68.603-152.927,152.927s68.603,152.927,152.927,152.927s152.927-68.603,152.927-152.927   S290.831,54.798,206.507,54.798z M206.507,345.652c-76.053,0-137.927-61.874-137.927-137.927S130.454,69.798,206.507,69.798   s137.927,61.874,137.927,137.927S282.56,345.652,206.507,345.652z"/>
	<path d="M488.507,409.212l-42.05-36.246c-3.138-2.704-7.874-2.354-10.578,0.784c-2.705,3.138-2.354,7.874,0.784,10.578   l42.048,36.245c13.93,12.016,16.854,32.593,6.836,47.935c-0.034,0.048-0.067,0.097-0.099,0.146   c-1.372,2.075-2.966,4.025-4.745,5.804l-5.015,5.026c-6.952,6.944-16.187,10.769-26.003,10.769   c-10.722,0-20.883-4.655-27.879-12.772l-90.69-105.194c15.982-12.132,30.147-26.533,42.016-42.722l42.012,36.214   c1.417,1.221,3.159,1.819,4.894,1.819c2.106,0,4.201-0.882,5.684-2.603c2.705-3.138,2.354-7.874-0.784-10.578l-43.327-37.347   c19.886-31.73,31.404-69.215,31.404-109.344c0-113.868-92.639-206.507-206.507-206.507C92.639,1.218,0,93.857,0,207.725   c0,113.869,92.639,206.507,206.507,206.507c41.373,0,79.937-12.239,112.279-33.274l91.658,106.316   c9.847,11.425,24.15,17.978,39.241,17.978c13.82,0,26.819-5.382,36.613-15.164l5.018-5.029c2.437-2.437,4.635-5.117,6.536-7.968   c0.042-0.06,0.083-0.121,0.124-0.183C512.244,455.278,508.173,426.175,488.507,409.212z M15,207.725   c0-105.597,85.91-191.507,191.507-191.507c105.597,0,191.507,85.91,191.507,191.507c0,105.598-85.91,191.507-191.507,191.507   C100.91,399.232,15,313.323,15,207.725z"/>
	<path d="M303.052,205.773l2.311-3.709c2.524-4.052,3.868-8.598,3.885-13.146c0-0.009,0-0.092,0-0.101   c0-3.435-0.647-6.788-1.899-9.921c3.214-4.505,4.987-9.937,4.987-15.559c0-9.084-4.652-17.461-12.022-22.357   c0.004-0.204,0.007-0.407,0.007-0.61c0-14.145-11.009-25.767-24.909-26.746c-3.448-10.834-13.628-18.725-25.557-18.725   c-1.484,0-2.967,0.125-4.43,0.372c-4.626-8.319-13.511-13.8-23.446-13.8c-5.195,0-10.224,1.51-14.509,4.268   c-4.286-2.758-9.314-4.268-14.509-4.268c-9.935,0-18.82,5.481-23.446,13.8c-1.463-0.246-2.946-0.372-4.43-0.372   c-11.929,0-22.108,7.891-25.557,18.725c-13.9,0.979-24.909,12.601-24.909,26.746c0,0.204,0.002,0.407,0.007,0.61   c-7.37,4.896-12.022,13.273-12.022,22.357c0,5.622,1.773,11.054,4.987,15.559c-1.252,3.133-1.9,6.487-1.9,9.921   c0,0.009,0,0.091,0,0.1c0.017,4.547,1.36,9.093,3.886,13.147l1.714,2.751c-8.238,5.698-13.648,15.204-13.648,25.955   c0,17.063,13.618,30.997,30.556,31.525c2.409,11.886,7.473,23.051,14.997,32.882c2.517,3.289,7.224,3.916,10.514,1.398   c3.29-2.517,3.915-7.225,1.398-10.514c-8.851-11.566-13.53-25.401-13.53-40.008v-36.147c2.156,0.554,4.388,0.842,6.645,0.842   c13.684,0,25.006-10.308,26.612-23.566c4.006-1.141,7.703-3.204,10.785-6.03c2.139,0.544,4.345,0.818,6.601,0.818   c5.552,0,10.831-1.677,15.25-4.746c4.419,3.068,9.698,4.746,15.25,4.746c2.22,0,4.438-0.28,6.588-0.826   c3.082,2.829,6.781,4.895,10.791,6.037c1.604,13.26,12.93,23.567,26.618,23.567c2.257,0,4.49-0.288,6.645-0.842v36.147   c0,31.548-22.446,58.758-53.379,64.701c-4.093,0.791-8.305,1.191-12.519,1.191c-11.56,0-22.929-3.034-32.876-8.774   c-3.586-2.069-8.174-0.841-10.245,2.748c-2.07,3.587-0.84,8.174,2.748,10.245c12.224,7.054,26.185,10.782,40.373,10.782   c5.166,0,10.335-0.493,15.356-1.462c32.577-6.259,57.474-31.735,63.901-63.298c16.051-1.46,28.671-14.987,28.671-31.413   C315.392,220.601,310.549,211.546,303.052,205.773z M112.643,230.77c0-8.231,6.05-15.058,13.935-16.317v31.6   c0,0.349,0.017,0.696,0.021,1.044C118.704,245.845,112.643,239.012,112.643,230.77z M266.717,195.747   c-6.514,0-11.813-5.296-11.813-11.807c0-0.644,0.058-1.313,0.173-1.989c0.384-2.271-0.296-4.594-1.847-6.298   c-1.493-1.642-3.639-2.531-5.841-2.448c-3.868-0.017-7.484-1.928-9.682-5.12c-2.14-3.106-6.253-4.14-9.605-2.417   c-1.679,0.863-3.489,1.3-5.382,1.3c-3.669,0-7.069-1.667-9.328-4.573c-1.421-1.829-3.606-2.898-5.922-2.898   s-4.501,1.069-5.922,2.898c-2.259,2.906-5.659,4.573-9.328,4.573c-1.893,0-3.703-0.438-5.382-1.3   c-3.352-1.723-7.462-0.691-9.602,2.412c-2.2,3.188-5.807,5.1-9.688,5.124c-2.216-0.08-4.348,0.809-5.84,2.451   c-1.55,1.705-2.229,4.028-1.844,6.299c0.11,0.649,0.166,1.318,0.166,1.986c0,6.51-5.296,11.807-11.807,11.807   c-3.319,0-6.391-1.339-8.649-3.771c-2.099-2.26-5.366-3.004-8.237-1.878c-2.871,1.127-4.759,3.897-4.759,6.981v2.263   c-0.323,0.027-0.646,0.056-0.966,0.092l-3.304-5.303c-1.051-1.688-1.61-3.509-1.617-5.315c0-2.417,0.729-4.743,2.108-6.725   c2.175-3.126,1.662-7.385-1.193-9.905c-2.543-2.246-4.002-5.472-4.002-8.85c0-4.927,3.105-9.381,7.726-11.084   c3.616-1.332,5.633-5.188,4.667-8.917c-0.25-0.968-0.377-1.966-0.377-2.966c0-6.514,5.299-11.813,11.813-11.813   c0.888,0,1.777,0.103,2.642,0.304c2.218,0.518,4.553-0.001,6.344-1.411c1.791-1.41,2.843-3.557,2.86-5.836   c0.049-6.46,5.345-11.715,11.807-11.715c1.917,0,3.752,0.45,5.457,1.338c2.1,1.093,4.593,1.131,6.725,0.103   c2.132-1.029,3.653-3.004,4.104-5.329c1.07-5.528,5.945-9.541,11.591-9.541c3.395,0,6.63,1.465,8.876,4.021   c1.424,1.62,3.477,2.549,5.634,2.549c2.157,0,4.209-0.929,5.633-2.549c2.245-2.555,5.48-4.021,8.875-4.021   c5.646,0,10.521,4.012,11.591,9.541c0.45,2.324,1.971,4.3,4.104,5.329c2.132,1.029,4.624,0.991,6.725-0.103   c1.704-0.888,3.54-1.338,5.457-1.338c6.461,0,11.758,5.255,11.807,11.715c0.018,2.279,1.07,4.426,2.86,5.836   c1.791,1.41,4.126,1.931,6.345,1.411c0.864-0.202,1.753-0.304,2.642-0.304c6.513,0,11.813,5.299,11.813,11.813   c0,1-0.127,1.999-0.377,2.966c-0.966,3.73,1.051,7.585,4.667,8.917c4.621,1.703,7.726,6.158,7.726,11.084   c0,3.378-1.459,6.604-4.003,8.85c-2.854,2.521-3.367,6.779-1.192,9.905c1.379,1.982,2.108,4.308,2.108,6.771   c-0.006,1.76-0.565,3.583-1.616,5.269l-3.461,5.554c-0.269-0.046-0.538-0.092-0.81-0.131v-2.482c0-3.085-1.89-5.856-4.762-6.982   c-2.872-1.125-6.142-0.379-8.239,1.884C273.107,194.408,270.037,195.747,266.717,195.747z M288.348,246.682   c0.002-0.21,0.014-0.419,0.014-0.629V214.87c6.933,1.973,12.03,8.347,12.03,15.901   C300.392,238.334,295.288,244.713,288.348,246.682z"/>
	<path d="M222.369,256.134c-3.98,3.98-9.271,6.172-14.9,6.172s-10.92-2.192-14.9-6.172c-2.929-2.929-7.678-2.929-10.606,0   c-2.929,2.929-2.929,7.678,0,10.606c6.813,6.813,15.872,10.565,25.507,10.565s18.693-3.752,25.506-10.565   c2.929-2.929,2.929-7.678,0-10.606C230.046,253.204,225.297,253.205,222.369,256.134z"/>
	<path d="M175.495,210.614c-4.142,0-7.5,3.358-7.5,7.5v18.041c0,4.142,3.358,7.5,7.5,7.5s7.5-3.358,7.5-7.5v-18.041   C182.995,213.972,179.637,210.614,175.495,210.614z"/>
	<path d="M239.443,243.655c4.142,0,7.5-3.358,7.5-7.5v-18.041c0-4.142-3.358-7.5-7.5-7.5s-7.5,3.358-7.5,7.5v18.041   C231.943,240.297,235.301,243.655,239.443,243.655z"/>
</g>















</svg>
